<svg width="30" height="34" viewBox="0 0 30 34" fill="none" xmlns="http://www.w3.org/2000/svg">
<g clip-path="url(#clip0_105_10822)">
<path d="M15.0804 33.5055C23.0922 33.5055 29.5871 26.1416 29.5871 17.0578C29.5871 7.974 23.0922 0.610107 15.0804 0.610107C7.06859 0.610107 0.57373 7.974 0.57373 17.0578C0.57373 26.1416 7.06859 33.5055 15.0804 33.5055Z" fill="#F8D24E"/>
<path d="M19.111 17.0388H16.7444V26.9265H13.1589V17.0388H11.4536V13.5639H13.1589V11.3153C13.1589 9.70722 13.8287 7.18921 16.7763 7.18921L19.4323 7.20188V10.5749H17.5052C17.1891 10.5749 16.7447 10.755 16.7447 11.5221V13.5672H19.4242L19.111 17.0388Z" fill="#84A178"/>
</g>
<defs>
<clipPath id="clip0_105_10822">
<rect width="29.0133" height="32.8954" fill="white" transform="translate(0.57373 0.610107)"/>
</clipPath>
</defs>
</svg>
