<svg width="30" height="34" viewBox="0 0 30 34" fill="none" xmlns="http://www.w3.org/2000/svg">
<ellipse cx="14.8533" cy="17.0578" rx="14.5067" ry="16.4477" fill="#F8D24E"/>
<path d="M14.8532 7.38281C10.1662 7.38281 6.31982 11.7438 6.31982 17.0579C6.31982 21.5927 9.12633 25.7121 12.8532 26.7331V23.5321C12.4839 23.6238 12.144 23.6265 11.7681 23.5008C11.2638 23.3321 10.8541 22.9512 10.5499 22.3704C10.356 21.9996 10.0124 21.5974 9.65394 21.627L9.56605 20.4976C10.3412 20.4223 11.0118 21.033 11.4098 21.7913C11.5866 22.1285 11.7901 22.3261 12.0513 22.4135C12.3038 22.4978 12.5749 22.4574 12.8908 22.3309C12.9701 21.6138 13.2598 21.3454 13.4787 20.9675V20.9669C11.256 20.591 10.3702 19.2541 10.0187 18.1988C9.55277 16.7977 9.80277 15.0472 10.6266 13.941C10.6426 13.9195 10.6715 13.8631 10.6603 13.8236C10.2826 12.53 10.7429 11.4598 10.7598 11.3463C11.1957 11.4924 11.2666 11.1992 12.6534 12.1545L12.8931 12.3178C12.9934 12.3856 12.9619 12.3469 13.0621 12.3383C13.6412 12.16 14.2516 12.0615 14.853 12.0527C15.459 12.0615 16.0655 12.16 16.6685 12.3456L16.7461 12.3544C16.7394 12.3532 16.7672 12.3488 16.814 12.3172C18.5464 11.1275 18.4841 11.5163 18.9487 11.3451C18.9655 11.4587 19.4197 12.5463 19.046 13.8236C18.9956 13.9996 20.5479 15.6113 19.6875 18.1984C19.336 19.2541 18.4503 20.591 16.2276 20.9669V20.9675C16.5125 21.4598 16.8549 21.7217 16.853 22.7374V26.7331C20.58 25.7121 23.3864 21.5927 23.3864 17.0579C23.3865 11.7438 19.5401 7.38281 14.8532 7.38281V7.38281Z" fill="#84A178"/>
</svg>
