<svg width="57" height="65" viewBox="0 0 57 65" fill="none" xmlns="http://www.w3.org/2000/svg">
<path d="M25.9121 34.6984C28.3148 27.0114 23.3391 22.8036 20.0409 20.0381C19.4103 19.4731 18.7796 18.9453 18.2688 18.4621C17.3559 17.554 16.6834 16.3559 16.3312 15.0103C15.9791 13.6648 15.9621 12.2283 16.2823 10.8717C16.3152 10.7298 16.3144 10.5799 16.2799 10.4385C16.2455 10.2971 16.1788 10.1695 16.087 10.0698C15.9952 9.97004 15.882 9.90195 15.7596 9.87294C15.6372 9.84393 15.5105 9.85511 15.3931 9.90528C14.2824 10.4233 13.2497 11.1488 12.3345 12.0538C11.4553 12.8529 10.7429 13.8788 10.2521 15.0527C9.76128 16.2267 9.50502 17.5175 9.50297 18.8263C8.88108 19.4043 8.33125 20.0825 7.86963 20.841C7.02159 22.2057 6.59641 23.872 6.66511 25.5617C5.65497 26.6555 4.90263 28.0393 4.48152 29.5781C4.06041 31.1169 3.9849 32.7581 4.26239 34.3415C3.86052 34.6278 3.54947 35.0616 3.37698 35.5764C3.2045 36.0912 3.18011 36.6585 3.30758 37.1912C3.43506 37.7239 3.70735 38.1925 4.08262 38.5252C4.45789 38.8578 4.91541 39.036 5.38492 39.0325H5.42907V43.4038C5.42907 43.8474 5.57856 44.2729 5.84466 44.5866C6.11076 44.9003 6.47168 45.0765 6.848 45.0765H7.95162L9.74893 63.439C9.7863 63.8478 9.95061 64.2258 10.2102 64.5003C10.4699 64.7748 10.8065 64.9264 11.1552 64.9258H18.6346C18.9837 64.9249 19.3203 64.7731 19.5807 64.499C19.841 64.2249 20.0071 63.8478 20.0472 63.439L21.8445 45.0765H22.9481C23.3245 45.0765 23.6854 44.9003 23.9515 44.5866C24.2176 44.2729 24.3671 43.8474 24.3671 43.4038V39.0325H24.4112C24.9816 39.0325 25.5285 38.7654 25.9318 38.29C26.3351 37.8146 26.5617 37.1698 26.5617 36.4974C26.5645 36.1619 26.5102 35.8291 26.4019 35.5187C26.2935 35.2084 26.1334 34.9269 25.931 34.6909L25.9121 34.6984ZM9.7237 20.7518C10.6318 24.7737 14.1382 26.3572 17.3355 27.7697C17.4214 27.8321 17.518 27.8713 17.6183 27.8848C17.7186 27.8982 17.8201 27.8854 17.9158 27.8473C18.0114 27.8092 18.0988 27.7468 18.1716 27.6644C18.2444 27.5821 18.301 27.4818 18.3373 27.3707C18.3736 27.2597 18.3886 27.1406 18.3814 27.0219C18.3743 26.9032 18.345 26.7879 18.2957 26.684C18.2464 26.5802 18.1783 26.4904 18.0963 26.421C18.0143 26.3517 17.9203 26.3045 17.8211 26.2828C14.3778 24.744 11.13 23.3092 10.8841 19.198C10.8264 18.0679 11.0064 16.9386 11.4079 15.9101C11.8095 14.8817 12.4202 13.9861 13.1859 13.3027C13.6656 12.8322 14.1806 12.4142 14.7246 12.0538C14.6896 12.5684 14.6896 13.0855 14.7246 13.6001C14.7976 14.7781 15.0708 15.9269 15.528 16.978C15.9852 18.0291 16.617 18.961 17.3859 19.7184C17.9094 20.2463 18.5589 20.789 19.2778 21.3688C20.9364 22.7739 22.822 24.3425 24.0202 26.4687C24.6595 27.5591 25.0573 28.8207 25.1773 30.1386C25.2974 31.4565 25.1359 32.7889 24.7076 34.0144H24.4427H21.9202C16.1751 34.0144 9.57235 32.141 8.26693 26.8924C8.00797 25.8127 8.01008 24.6691 8.27305 23.5906C8.53602 22.5122 9.04939 21.5418 9.75522 20.789L9.7237 20.7518ZM14.8949 46.095L17.0012 48.578L14.8949 51.0611L12.7886 48.5632L14.8949 46.095ZM19.7256 52.6148L17.985 54.6667L15.8787 52.1836L17.985 49.708L19.8139 51.8565L19.7256 52.6148ZM14.8949 58.3094L12.7886 55.8264L14.8949 53.3433L17.0012 55.8264L14.8949 58.3094ZM13.93 52.1985L11.8237 54.6815L10.0705 52.6148L9.99487 51.8714L11.8237 49.7229L13.93 52.1985ZM10.8525 55.8264L10.43 56.3245L10.3228 55.1945L10.8525 55.8264ZM10.6318 58.3689L11.8237 56.9638L14.1382 59.7145C14.15 59.77 14.1647 59.8246 14.1823 59.878H10.7769L10.6318 58.3689ZM17.9724 56.9638L19.1643 58.3689L19.0193 59.8557H15.5192L17.9724 56.9638ZM19.3598 56.3245L18.9373 55.8264L19.4733 55.1945L19.3598 56.3245ZM19.9905 49.827L18.9373 48.5632L20.2742 46.9871L19.9905 49.827ZM17.9661 47.4332L15.967 45.084H19.9652L17.9661 47.4332ZM11.8174 47.4332L9.81829 45.084H13.8165L11.8174 47.4332ZM18.6283 63.3126H11.1552C11.144 63.3111 11.1335 63.3051 11.1255 63.2956C11.1175 63.2862 11.1124 63.2738 11.1111 63.2606L10.9345 61.4764H18.8553L18.685 63.2606C18.6835 63.275 18.6775 63.2883 18.6682 63.2979C18.6589 63.3075 18.6469 63.3127 18.6346 63.3126H18.6283ZM24.4112 37.4118H22.2166C22.1212 37.401 22.025 37.4139 21.9341 37.4495C21.8431 37.4851 21.7595 37.5427 21.6886 37.6187C21.6177 37.6946 21.561 37.7872 21.5222 37.8905C21.4835 37.9938 21.4634 38.1055 21.4634 38.2185C21.4634 38.3314 21.4835 38.4431 21.5222 38.5464C21.561 38.6497 21.6177 38.7423 21.6886 38.8182C21.7595 38.8942 21.8431 38.9518 21.9341 38.9874C22.025 39.0231 22.1212 39.0359 22.2166 39.0251H22.9986V43.3964C22.997 43.4108 22.9911 43.4241 22.9818 43.4337C22.9725 43.4433 22.9605 43.4485 22.9481 43.4484H6.82277C6.81042 43.4485 6.79845 43.4433 6.78915 43.4337C6.77985 43.4241 6.77387 43.4108 6.77233 43.3964V39.0251H19.2652C19.4354 39.0058 19.5933 38.9125 19.7082 38.7633C19.8232 38.6142 19.8869 38.42 19.8869 38.2185C19.8869 38.017 19.8232 37.8227 19.7082 37.6736C19.5933 37.5244 19.4354 37.4311 19.2652 37.4118H5.39123C5.28307 37.4233 5.17405 37.4081 5.07114 37.3672C4.96823 37.3263 4.87368 37.2605 4.79351 37.1742C4.71334 37.0878 4.64932 36.9827 4.60552 36.8655C4.56171 36.7484 4.53908 36.6218 4.53908 36.4937C4.53908 36.3657 4.56171 36.2391 4.60552 36.1219C4.64932 36.0048 4.71334 35.8996 4.79351 35.8133C4.87368 35.7269 4.96823 35.6612 5.07114 35.6202C5.17405 35.5793 5.28307 35.5641 5.39123 35.5756H6.82277C6.99291 35.5563 7.15085 35.463 7.26578 35.3139C7.38072 35.1647 7.4444 34.9705 7.4444 34.769C7.4444 34.5675 7.38072 34.3732 7.26578 34.2241C7.15085 34.075 6.99291 33.9817 6.82277 33.9624H5.5615C5.38085 32.8312 5.4102 31.6674 5.64753 30.5509C5.88485 29.4344 6.32451 28.3917 6.93628 27.4946C7.37773 29.1153 8.51287 31.3307 11.3507 33.0926C14.0183 34.7355 17.5499 35.5756 21.8445 35.5756H24.3671C24.4752 35.5641 24.5843 35.5793 24.6872 35.6202C24.7901 35.6612 24.8846 35.7269 24.9648 35.8133C25.0449 35.8996 25.109 36.0048 25.1528 36.1219C25.1966 36.2391 25.2192 36.3657 25.2192 36.4937C25.2192 36.6218 25.1966 36.7484 25.1528 36.8655C25.109 36.9827 25.0449 37.0878 24.9648 37.1742C24.8846 37.2605 24.7901 37.3263 24.6872 37.3672C24.5843 37.4081 24.4752 37.4233 24.3671 37.4118H24.4112Z" fill="#F8D24E"/>
<path d="M34.5092 59.2145L33.9152 60.1261L33.9271 60.1337L34.5092 59.2145ZM40.9054 59.5226L41.9931 59.4985L41.9651 58.2393L40.7234 58.45L40.9054 59.5226ZM40.9798 62.8694L41.2566 63.9216L42.0865 63.7032L42.0675 62.8453L40.9798 62.8694ZM32.5861 63.0288L32.8303 61.9686L32.8236 61.9671L32.5861 63.0288ZM28.4425 61.1801L29.1464 60.3505L29.1447 60.3491L28.4425 61.1801ZM26.9444 57.7802L28.0323 57.7856V57.7802H26.9444ZM27.465 55.4002L26.4887 54.92L26.488 54.9215L27.465 55.4002ZM30.8012 52.5527L31.1872 53.57L31.1911 53.5684L30.8012 52.5527ZM41.4897 52.2765L42.5744 52.361L42.646 51.4423L41.7516 51.2205L41.4897 52.2765ZM41.2241 55.6871L41.0215 56.756L42.2145 56.9821L42.3088 55.7715L41.2241 55.6871ZM38.3236 54.291C36.6908 54.291 35.3183 54.4654 34.3157 54.9063C33.8019 55.1322 33.3344 55.4501 32.9941 55.8991C32.6431 56.3621 32.4756 56.9017 32.4756 57.472H34.6516C34.6516 57.3447 34.6825 57.2738 34.7282 57.2136C34.7845 57.1393 34.912 57.0211 35.1916 56.8982C35.7756 56.6414 36.7831 56.4669 38.3236 56.4669V54.291ZM32.4756 57.472C32.4756 58.5916 32.9775 59.5149 33.9152 60.126L35.1033 58.303C34.7802 58.0925 34.6516 57.8541 34.6516 57.472H32.4756ZM33.9271 60.1337C34.8161 60.6967 35.9883 60.9081 37.3036 60.9081V58.7321C36.168 58.7321 35.4774 58.5398 35.0914 58.2954L33.9271 60.1337ZM37.3036 60.9081C38.5946 60.9081 39.8562 60.8042 41.0874 60.5953L40.7234 58.45C39.6171 58.6377 38.4775 58.7321 37.3036 58.7321V60.9081ZM39.8177 59.5468L39.892 62.8936L42.0675 62.8453L41.9931 59.4985L39.8177 59.5468ZM40.7029 61.8173C39.459 62.1446 38.0871 62.3127 36.5811 62.3127V64.4887C38.2484 64.4887 39.8089 64.3026 41.2566 63.9216L40.7029 61.8173ZM36.5811 62.3127C35.0442 62.3127 33.8005 62.192 32.8303 61.9686L32.342 64.0891C33.5251 64.3615 34.9446 64.4887 36.5811 64.4887V62.3127ZM32.8236 61.9671C31.7852 61.7348 31.0352 61.488 30.5349 61.2437L29.58 63.199C30.298 63.5496 31.2338 63.8412 32.3487 64.0906L32.8236 61.9671ZM30.5349 61.2437C29.9986 60.9818 29.538 60.6828 29.1464 60.3505L27.7386 62.0097C28.2819 62.4707 28.898 62.8659 29.58 63.199L30.5349 61.2437ZM29.1447 60.3491C28.4054 59.7244 28.0267 58.9079 28.0323 57.7856L25.8564 57.7747C25.8478 59.4857 26.4679 60.9359 27.7402 62.0111L29.1447 60.3491ZM28.0323 57.7802C28.0323 57.0488 28.1759 56.422 28.442 55.8789L26.488 54.9215C26.0599 55.795 25.8564 56.7549 25.8564 57.7802H28.0323ZM28.4413 55.8803C28.9362 54.874 29.8102 54.0925 31.1872 53.57L30.4152 51.5355C28.6189 52.2172 27.2687 53.334 26.4887 54.92L28.4413 55.8803ZM31.1911 53.5684C32.6387 53.0127 34.2541 52.727 36.0498 52.727V50.551C34.0206 50.551 32.1369 50.8745 30.4112 51.537L31.1911 53.5684ZM36.0498 52.727C37.8813 52.727 39.6062 52.9304 41.2279 53.3325L41.7516 51.2205C39.945 50.7726 38.0433 50.551 36.0498 50.551V52.727ZM40.405 52.192L40.1394 55.6026L42.3088 55.7715L42.5744 52.361L40.405 52.192ZM41.4267 54.6181C40.2948 54.4036 39.2581 54.291 38.3236 54.291V56.4669C39.089 56.4669 39.986 56.5597 41.0215 56.756L41.4267 54.6181ZM52.0423 56.3564L52.0363 57.4444L53.142 57.4505L53.1302 56.3449L52.0423 56.3564ZM51.5748 54.9433L50.8345 55.7407L50.8439 55.7492L51.5748 54.9433ZM48.8655 55.0496L49.619 55.8345L49.627 55.8266L48.8655 55.0496ZM48.2068 56.3352L47.1332 56.1587L46.9265 57.4161L48.2007 57.4231L48.2068 56.3352ZM56.2072 62.1363L56.8645 63.0034L57.2556 62.7069L57.2922 62.2175L56.2072 62.1363ZM53.8592 63.0076L53.6253 61.945L53.6189 61.9464L53.8592 63.0076ZM45.6993 62.7101L45.3283 63.7329L45.3372 63.736L45.6993 62.7101ZM43.84 61.722L43.1646 62.575L43.1712 62.5801L43.1777 62.5852L43.84 61.722ZM42.5969 60.1601L41.6216 60.6424L41.6237 60.6467L42.5969 60.1601ZM43.8718 53.5621L44.5953 54.3747L44.5959 54.3742L43.8718 53.5621ZM53.8167 52.3827L54.2518 51.3855L54.2416 51.3812L53.8167 52.3827ZM56.3135 54.6777L55.335 55.1534L55.338 55.1594L56.3135 54.6777ZM56.7385 56.5796L57.8236 56.6585L57.8265 56.6191V56.5796H56.7385ZM56.611 58.3326L56.6056 59.4206L57.6224 59.4256L57.6961 58.4116L56.611 58.3326ZM47.9943 58.2901L47.9996 57.2022L46.5803 57.1952L46.9423 58.5676L47.9943 58.2901ZM49.2267 59.8095L48.6914 60.7567L48.6958 60.7591L49.2267 59.8095ZM55.8354 59.4376V58.3496H55.618L55.4173 58.4332L55.8354 59.4376ZM56.4091 59.4376L57.4941 59.5188L57.5815 58.3496H56.4091V59.4376ZM53.1302 56.3449C53.1219 55.5579 52.941 54.7136 52.3057 54.1374L50.8439 55.7492C50.8311 55.7376 50.8561 55.7515 50.8872 55.8455C50.9202 55.9451 50.9517 56.1115 50.9544 56.368L53.1302 56.3449ZM52.3151 54.1461C51.7442 53.6159 50.995 53.441 50.2573 53.441V55.6169C50.6813 55.6169 50.8105 55.7183 50.8345 55.7406L52.3151 54.1461ZM50.2573 53.441C49.4471 53.441 48.6936 53.6948 48.104 54.2725L49.627 55.8266C49.7458 55.7102 49.9201 55.6169 50.2573 55.6169V53.441ZM48.112 54.2647C47.5765 54.7789 47.2536 55.4262 47.1332 56.1587L49.2803 56.5117C49.3299 56.21 49.4462 56.0003 49.619 55.8344L48.112 54.2647ZM48.2007 57.4231L52.0363 57.4444L52.0483 55.2685L48.2128 55.2472L48.2007 57.4231ZM55.55 61.2693C55.3115 61.4501 54.7298 61.7019 53.6253 61.945L54.0931 64.0701C55.241 63.8174 56.2247 63.4884 56.8645 63.0034L55.55 61.2693ZM53.6189 61.9464C52.5648 62.1851 51.5511 62.3021 50.5761 62.3021V64.478C51.7261 64.478 52.9011 64.34 54.0994 64.0687L53.6189 61.9464ZM50.5761 62.3021C49.5509 62.3021 48.7064 62.2537 48.0332 62.1631L47.7429 64.3196C48.5429 64.4273 49.4905 64.478 50.5761 64.478V62.3021ZM48.0332 62.1631C47.3727 62.0741 46.7157 61.9151 46.0614 61.6841L45.3372 63.736C46.1279 64.0151 46.93 64.2102 47.7429 64.3196L48.0332 62.1631ZM46.0703 61.6873C45.4342 61.4566 44.9167 61.1767 44.5022 60.8587L43.1777 62.5852C43.7973 63.0605 44.5194 63.4394 45.3283 63.7328L46.0703 61.6873ZM44.5153 60.8689C44.1417 60.5732 43.8244 60.1824 43.57 59.6736L41.6237 60.6467C42.0068 61.4128 42.5182 62.0632 43.1646 62.575L44.5153 60.8689ZM43.5721 59.6778C43.3432 59.215 43.2067 58.6192 43.2067 57.8545H41.0308C41.0308 58.8748 41.213 59.8161 41.6216 60.6424L43.5721 59.6778ZM43.2067 57.8545C43.2067 57.0891 43.3447 56.4132 43.6055 55.8121L41.6094 54.9458C41.2186 55.8463 41.0308 56.8208 41.0308 57.8545H43.2067ZM43.6055 55.8121C43.8798 55.18 44.2158 54.7126 44.5953 54.3747L43.1483 52.7495C42.4937 53.3324 41.9868 54.0762 41.6094 54.9458L43.6055 55.8121ZM44.5959 54.3742C45.7652 53.3316 47.5489 52.727 50.1192 52.727V50.551C47.2354 50.551 44.8543 51.2285 43.1478 52.75L44.5959 54.3742ZM50.1192 52.727C51.2726 52.727 52.3603 52.9467 53.3918 53.3843L54.2416 51.3812C52.9356 50.8271 51.5583 50.551 50.1192 50.551V52.727ZM53.3815 53.3799C54.3443 53.8001 54.9666 54.3955 55.335 55.1534L57.292 54.2021C56.6687 52.9199 55.6265 51.9854 54.2518 51.3856L53.3815 53.3799ZM55.338 55.1594C55.5412 55.5709 55.6505 56.038 55.6505 56.5796H57.8265C57.8265 55.7327 57.6525 54.932 57.289 54.196L55.338 55.1594ZM55.6534 56.5006L55.5259 58.2537L57.6961 58.4116L57.8236 56.6585L55.6534 56.5006ZM56.6164 57.2447L47.9996 57.2022L47.9889 59.3781L56.6056 59.4206L56.6164 57.2447ZM46.9423 58.5676C47.1966 59.5321 47.8187 60.2634 48.6914 60.7567L49.7621 58.8623C49.3315 58.619 49.1319 58.3374 49.0463 58.0127L46.9423 58.5676ZM48.6958 60.7591C49.5782 61.2525 50.6817 61.45 51.9148 61.45V59.274C50.8813 59.274 50.1928 59.1031 49.7577 58.8599L48.6958 60.7591ZM51.9148 61.45C53.2381 61.45 54.6915 61.0923 56.2535 60.4421L55.4173 58.4332C54.0185 59.0155 52.8582 59.274 51.9148 59.274V61.45ZM55.8354 60.5256H56.4091V58.3496H55.8354V60.5256ZM55.3242 59.3565L55.1223 62.0552L57.2922 62.2175L57.4941 59.5188L55.3242 59.3565Z" fill="#F8D24E"/>
</svg>
