<svg width="30" height="34" viewBox="0 0 30 34" fill="none" xmlns="http://www.w3.org/2000/svg">
<g clip-path="url(#clip0_105_10829)">
<ellipse cx="14.7469" cy="17.0578" rx="14.5067" ry="16.4477" fill="#F8D24E"/>
<path d="M11.9064 19.4995L11.6185 23.7856C12.0305 23.7856 12.2089 23.5983 12.4229 23.3734L14.3545 21.42L18.357 24.5217C19.091 24.9546 19.6082 24.7266 19.8062 23.8071L22.4335 10.7801L22.4342 10.7793C22.667 9.63108 22.0418 9.18206 21.3266 9.46375L5.88385 15.7201C4.82992 16.153 4.84588 16.7747 5.70469 17.0564L9.65278 18.3559L18.8234 12.2838C19.255 11.9813 19.6474 12.1487 19.3246 12.4511L11.9064 19.4995Z" fill="#84A178"/>
</g>
<defs>
<clipPath id="clip0_105_10829">
<rect width="29.0133" height="32.8954" fill="white" transform="translate(0.240234 0.610107)"/>
</clipPath>
</defs>
</svg>
