<svg width="32" height="28" viewBox="0 0 32 28" fill="none" xmlns="http://www.w3.org/2000/svg">
<path d="M30.5201 11.9349L3.43008 0.27169C3.06462 0.125894 2.66262 0.0611191 2.26066 0.0832629C1.85871 0.105407 1.46957 0.213766 1.12867 0.398476C0.787766 0.583186 0.50593 0.838381 0.308816 1.14083C0.111702 1.44328 0.00557059 1.78338 8.19132e-05 2.13016V25.4464C-0.00333102 25.8024 0.09996 26.1531 0.299972 26.4647C0.499984 26.7762 0.789953 27.0381 1.14185 27.225C1.49375 27.4118 1.89568 27.5173 2.30878 27.5314C2.72189 27.5454 3.13221 27.4674 3.50008 27.3049L30.5201 15.6417C30.9203 15.4687 31.2568 15.2033 31.492 14.8751C31.7271 14.5469 31.8517 14.1689 31.8517 13.7833C31.8517 13.3977 31.7271 13.0196 31.492 12.6914C31.2568 12.3632 30.9203 12.0978 30.5201 11.9248V11.9349Z" fill="#FCFCFC"/>
</svg>
